<mxfile host="Electron" agent="Mozilla/5.0 (Windows NT 10.0; Win64; x64) AppleWebKit/537.36 (KHTML, like Gecko) draw.io/26.0.4 Chrome/128.0.6613.186 Electron/32.2.5 Safari/537.36" version="26.0.4">
  <diagram name="Cinema Complete Schema" id="P0xxUzc859ORvwyFVXQB">
    <mxGraphModel dx="915" dy="683" grid="1" gridSize="10" guides="1" tooltips="1" connect="1" arrows="1" fold="1" page="1" pageScale="1" pageWidth="827" pageHeight="1169" math="0" shadow="0">
      <root>
        <mxCell id="0" />
        <mxCell id="1" parent="0" />
        <mxCell id="YDMUcPhCbgxgJ5gFrsg1-4" value="Sala" style="rounded=1;whiteSpace=wrap;html=1;fontSize=12;" parent="1" vertex="1">
          <mxGeometry x="40" y="160" width="120" height="30" as="geometry" />
        </mxCell>
        <mxCell id="YDMUcPhCbgxgJ5gFrsg1-5" value="• ID&#xa;• Numero_Lugares&#xa;• Tipo&#xa;• Numero_Sala" style="text;strokeColor=none;fillColor=none;align=left;verticalAlign=top;spacingLeft=4;spacingRight=4;overflow=hidden;rotatable=0;points=[[0,0.5],[1,0.5]];portConstraint=eastwest;" parent="1" vertex="1">
          <mxGeometry x="40" y="190" width="120" height="70" as="geometry" />
        </mxCell>
        <mxCell id="YDMUcPhCbgxgJ5gFrsg1-6" value="Filme" style="rounded=1;whiteSpace=wrap;html=1;fontSize=12;" parent="1" vertex="1">
          <mxGeometry x="275" y="415" width="120" height="30" as="geometry" />
        </mxCell>
        <mxCell id="YDMUcPhCbgxgJ5gFrsg1-7" value="• ID&#xa;• Data_Lançamento&#xa;• Titulo&#xa;• Duraçao&#xa;• Classificaçao&#xa;• Genero" style="text;strokeColor=none;fillColor=none;align=left;verticalAlign=top;spacingLeft=4;spacingRight=4;overflow=hidden;rotatable=0;points=[[0,0.5],[1,0.5]];portConstraint=eastwest;" parent="1" vertex="1">
          <mxGeometry x="270" y="445" width="120" height="100" as="geometry" />
        </mxCell>
        <mxCell id="YDMUcPhCbgxgJ5gFrsg1-8" value="Sessão" style="rounded=1;whiteSpace=wrap;html=1;fontSize=12;" parent="1" vertex="1">
          <mxGeometry x="320" y="160" width="120" height="30" as="geometry" />
        </mxCell>
        <mxCell id="YDMUcPhCbgxgJ5gFrsg1-9" value="• ID&#xa;• Data_Inicio&#xa;• Hora_Inicio&#xa;• Duracao&#xa;• Lugares_Ocupados" style="text;strokeColor=none;fillColor=none;align=left;verticalAlign=top;spacingLeft=4;spacingRight=4;overflow=hidden;rotatable=0;points=[[0,0.5],[1,0.5]];portConstraint=eastwest;" parent="1" vertex="1">
          <mxGeometry x="320" y="190" width="130" height="90" as="geometry" />
        </mxCell>
        <mxCell id="YDMUcPhCbgxgJ5gFrsg1-10" value="Bilhete" style="rounded=1;whiteSpace=wrap;html=1;fontSize=12;" parent="1" vertex="1">
          <mxGeometry x="600" y="160" width="120" height="30" as="geometry" />
        </mxCell>
        <mxCell id="YDMUcPhCbgxgJ5gFrsg1-11" value="• ID&#xa;• Identificaçao_Lugar&#xa;• Preço&#xa;• Data" style="text;strokeColor=none;fillColor=none;align=left;verticalAlign=top;spacingLeft=4;spacingRight=4;overflow=hidden;rotatable=0;points=[[0,0.5],[1,0.5]];portConstraint=eastwest;" parent="1" vertex="1">
          <mxGeometry x="600" y="190" width="130" height="70" as="geometry" />
        </mxCell>
        <mxCell id="YDMUcPhCbgxgJ5gFrsg1-12" value="Cliente" style="rounded=1;whiteSpace=wrap;html=1;fontSize=12;" parent="1" vertex="1">
          <mxGeometry x="1017" y="400" width="120" height="30" as="geometry" />
        </mxCell>
        <mxCell id="YDMUcPhCbgxgJ5gFrsg1-13" value="• ID&#xa;• Nome&#xa;• Email&#xa;• Telefone" style="text;strokeColor=none;fillColor=none;align=left;verticalAlign=top;spacingLeft=4;spacingRight=4;overflow=hidden;rotatable=0;points=[[0,0.5],[1,0.5]];portConstraint=eastwest;" parent="1" vertex="1">
          <mxGeometry x="1017" y="445" width="120" height="70" as="geometry" />
        </mxCell>
        <mxCell id="YDMUcPhCbgxgJ5gFrsg1-14" value="Avaliação" style="rounded=1;whiteSpace=wrap;html=1;fontSize=12;" parent="1" vertex="1">
          <mxGeometry x="640" y="405" width="120" height="30" as="geometry" />
        </mxCell>
        <mxCell id="YDMUcPhCbgxgJ5gFrsg1-15" value="• ID&#xa;• Data&#xa;• Nota&#xa;• Comentario" style="text;strokeColor=none;fillColor=none;align=left;verticalAlign=top;spacingLeft=4;spacingRight=4;overflow=hidden;rotatable=0;points=[[0,0.5],[1,0.5]];portConstraint=eastwest;" parent="1" vertex="1">
          <mxGeometry x="640" y="435" width="120" height="70" as="geometry" />
        </mxCell>
        <mxCell id="YDMUcPhCbgxgJ5gFrsg1-16" value="Tem" style="rhombus;whiteSpace=wrap;html=1;" parent="1" vertex="1">
          <mxGeometry x="200" y="165" width="80" height="40" as="geometry" />
        </mxCell>
        <mxCell id="YDMUcPhCbgxgJ5gFrsg1-17" value="Tem" style="rhombus;whiteSpace=wrap;html=1;" parent="1" vertex="1">
          <mxGeometry x="280" y="320" width="80" height="40" as="geometry" />
        </mxCell>
        <mxCell id="YDMUcPhCbgxgJ5gFrsg1-18" value="Tem" style="rhombus;whiteSpace=wrap;html=1;" parent="1" vertex="1">
          <mxGeometry x="480" y="165" width="80" height="40" as="geometry" />
        </mxCell>
        <mxCell id="YDMUcPhCbgxgJ5gFrsg1-19" value="Compra" style="rhombus;whiteSpace=wrap;html=1;" parent="1" vertex="1">
          <mxGeometry x="840" y="158" width="80" height="40" as="geometry" />
        </mxCell>
        <mxCell id="YDMUcPhCbgxgJ5gFrsg1-20" value="Tem" style="rhombus;whiteSpace=wrap;html=1;" parent="1" vertex="1">
          <mxGeometry x="810" y="405" width="80" height="40" as="geometry" />
        </mxCell>
        <mxCell id="YDMUcPhCbgxgJ5gFrsg1-21" value="Sala" style="swimlane;fontStyle=0;childLayout=stackLayout;horizontal=1;startSize=26;fillColor=none;horizontalStack=0;resizeParent=1;resizeParentMax=0;resizeLast=0;collapsible=1;marginBottom=0;" parent="1" vertex="1">
          <mxGeometry x="280" y="600" width="160" height="120" as="geometry" />
        </mxCell>
        <mxCell id="YDMUcPhCbgxgJ5gFrsg1-22" value="PK    ID_Sala" style="text;strokeColor=none;fillColor=none;align=left;verticalAlign=top;spacingLeft=4;spacingRight=4;overflow=hidden;rotatable=0;points=[[0,0.5],[1,0.5]];portConstraint=eastwest;" parent="YDMUcPhCbgxgJ5gFrsg1-21" vertex="1">
          <mxGeometry y="26" width="160" height="26" as="geometry" />
        </mxCell>
        <mxCell id="YDMUcPhCbgxgJ5gFrsg1-23" value="        Numero&#xa;        Tipo&#xa;        Numero_Lugares" style="text;strokeColor=none;fillColor=none;align=left;verticalAlign=top;spacingLeft=4;spacingRight=4;overflow=hidden;rotatable=0;points=[[0,0.5],[1,0.5]];portConstraint=eastwest;" parent="YDMUcPhCbgxgJ5gFrsg1-21" vertex="1">
          <mxGeometry y="52" width="160" height="68" as="geometry" />
        </mxCell>
        <mxCell id="YDMUcPhCbgxgJ5gFrsg1-24" value="" style="endArrow=ERmany;html=1;rounded=0;entryX=0;entryY=0.5;entryDx=0;entryDy=0;exitX=1;exitY=0.5;exitDx=0;exitDy=0;endFill=0;" parent="1" source="YDMUcPhCbgxgJ5gFrsg1-21" edge="1">
          <mxGeometry relative="1" as="geometry" />
        </mxCell>
        <mxCell id="MIX5FxBl54moTWi2iaJ1-35" value="" style="endArrow=none;html=1;rounded=0;entryX=0;entryY=0.5;entryDx=0;entryDy=0;exitX=0.998;exitY=0.836;exitDx=0;exitDy=0;exitPerimeter=0;" edge="1" parent="1" source="YDMUcPhCbgxgJ5gFrsg1-4" target="YDMUcPhCbgxgJ5gFrsg1-16">
          <mxGeometry width="50" height="50" relative="1" as="geometry">
            <mxPoint x="160" y="186.25" as="sourcePoint" />
            <mxPoint x="195.00000000000006" y="183.75" as="targetPoint" />
          </mxGeometry>
        </mxCell>
        <mxCell id="MIX5FxBl54moTWi2iaJ1-36" value="" style="endArrow=none;html=1;rounded=0;entryX=0;entryY=0.5;entryDx=0;entryDy=0;exitX=0.998;exitY=0.836;exitDx=0;exitDy=0;exitPerimeter=0;" edge="1" parent="1">
          <mxGeometry width="50" height="50" relative="1" as="geometry">
            <mxPoint x="280" y="184.9" as="sourcePoint" />
            <mxPoint x="320" y="184.9" as="targetPoint" />
          </mxGeometry>
        </mxCell>
        <mxCell id="MIX5FxBl54moTWi2iaJ1-37" value="" style="endArrow=none;html=1;rounded=0;entryX=0;entryY=0.5;entryDx=0;entryDy=0;exitX=0.998;exitY=0.836;exitDx=0;exitDy=0;exitPerimeter=0;" edge="1" parent="1">
          <mxGeometry width="50" height="50" relative="1" as="geometry">
            <mxPoint x="440" y="184.8" as="sourcePoint" />
            <mxPoint x="480" y="184.8" as="targetPoint" />
          </mxGeometry>
        </mxCell>
        <mxCell id="MIX5FxBl54moTWi2iaJ1-38" value="" style="endArrow=none;html=1;rounded=0;entryX=0;entryY=0.5;entryDx=0;entryDy=0;exitX=0.998;exitY=0.836;exitDx=0;exitDy=0;exitPerimeter=0;" edge="1" parent="1">
          <mxGeometry width="50" height="50" relative="1" as="geometry">
            <mxPoint x="560" y="184.8" as="sourcePoint" />
            <mxPoint x="600" y="184.8" as="targetPoint" />
          </mxGeometry>
        </mxCell>
        <mxCell id="MIX5FxBl54moTWi2iaJ1-39" value="1" style="text;html=1;align=center;verticalAlign=middle;resizable=0;points=[];autosize=1;strokeColor=none;fillColor=none;" vertex="1" parent="1">
          <mxGeometry x="175" y="158" width="30" height="30" as="geometry" />
        </mxCell>
        <mxCell id="MIX5FxBl54moTWi2iaJ1-40" value="N" style="text;html=1;align=center;verticalAlign=middle;resizable=0;points=[];autosize=1;strokeColor=none;fillColor=none;" vertex="1" parent="1">
          <mxGeometry x="275" y="158" width="30" height="30" as="geometry" />
        </mxCell>
        <mxCell id="MIX5FxBl54moTWi2iaJ1-41" value="1" style="text;html=1;align=center;verticalAlign=middle;resizable=0;points=[];autosize=1;strokeColor=none;fillColor=none;" vertex="1" parent="1">
          <mxGeometry x="445" y="148" width="30" height="30" as="geometry" />
        </mxCell>
        <mxCell id="MIX5FxBl54moTWi2iaJ1-42" value="N" style="text;html=1;align=center;verticalAlign=middle;resizable=0;points=[];autosize=1;strokeColor=none;fillColor=none;" vertex="1" parent="1">
          <mxGeometry x="565" y="148" width="30" height="30" as="geometry" />
        </mxCell>
        <mxCell id="MIX5FxBl54moTWi2iaJ1-43" value="" style="endArrow=none;html=1;rounded=0;exitX=-0.003;exitY=0.858;exitDx=0;exitDy=0;exitPerimeter=0;" edge="1" parent="1" source="YDMUcPhCbgxgJ5gFrsg1-8" target="YDMUcPhCbgxgJ5gFrsg1-17">
          <mxGeometry width="50" height="50" relative="1" as="geometry">
            <mxPoint x="320" y="190" as="sourcePoint" />
            <mxPoint x="330" y="300" as="targetPoint" />
          </mxGeometry>
        </mxCell>
        <mxCell id="MIX5FxBl54moTWi2iaJ1-44" value="" style="endArrow=none;html=1;rounded=0;entryX=0.375;entryY=0.033;entryDx=0;entryDy=0;entryPerimeter=0;" edge="1" parent="1" target="YDMUcPhCbgxgJ5gFrsg1-6">
          <mxGeometry width="50" height="50" relative="1" as="geometry">
            <mxPoint x="319.8" y="360" as="sourcePoint" />
            <mxPoint x="319.8" y="395" as="targetPoint" />
          </mxGeometry>
        </mxCell>
        <mxCell id="MIX5FxBl54moTWi2iaJ1-46" value="" style="endArrow=none;html=1;rounded=0;exitX=0.998;exitY=0.836;exitDx=0;exitDy=0;exitPerimeter=0;entryX=0;entryY=0.5;entryDx=0;entryDy=0;" edge="1" parent="1" target="YDMUcPhCbgxgJ5gFrsg1-19">
          <mxGeometry width="50" height="50" relative="1" as="geometry">
            <mxPoint x="720" y="177.66000000000003" as="sourcePoint" />
            <mxPoint x="750" y="178" as="targetPoint" />
          </mxGeometry>
        </mxCell>
        <mxCell id="MIX5FxBl54moTWi2iaJ1-47" value="" style="endArrow=none;html=1;rounded=0;entryX=0.442;entryY=0.017;entryDx=0;entryDy=0;entryPerimeter=0;exitX=1;exitY=0.5;exitDx=0;exitDy=0;" edge="1" parent="1" source="YDMUcPhCbgxgJ5gFrsg1-19" target="YDMUcPhCbgxgJ5gFrsg1-12">
          <mxGeometry width="50" height="50" relative="1" as="geometry">
            <mxPoint x="789.6600000000001" y="244" as="sourcePoint" />
            <mxPoint x="789.86" y="300" as="targetPoint" />
          </mxGeometry>
        </mxCell>
        <mxCell id="MIX5FxBl54moTWi2iaJ1-48" value="" style="endArrow=none;html=1;rounded=0;entryX=1;entryY=0.5;entryDx=0;entryDy=0;exitX=0;exitY=0.75;exitDx=0;exitDy=0;" edge="1" parent="1" source="YDMUcPhCbgxgJ5gFrsg1-12" target="YDMUcPhCbgxgJ5gFrsg1-20">
          <mxGeometry width="50" height="50" relative="1" as="geometry">
            <mxPoint x="890" y="270" as="sourcePoint" />
            <mxPoint x="890" y="483" as="targetPoint" />
          </mxGeometry>
        </mxCell>
        <mxCell id="MIX5FxBl54moTWi2iaJ1-50" value="" style="endArrow=none;html=1;rounded=0;entryX=0;entryY=0.5;entryDx=0;entryDy=0;exitX=1;exitY=0.678;exitDx=0;exitDy=0;exitPerimeter=0;" edge="1" parent="1" source="YDMUcPhCbgxgJ5gFrsg1-14" target="YDMUcPhCbgxgJ5gFrsg1-20">
          <mxGeometry width="50" height="50" relative="1" as="geometry">
            <mxPoint x="760" y="420" as="sourcePoint" />
            <mxPoint x="810" y="370" as="targetPoint" />
          </mxGeometry>
        </mxCell>
        <mxCell id="MIX5FxBl54moTWi2iaJ1-51" value="Tem" style="rhombus;whiteSpace=wrap;html=1;" vertex="1" parent="1">
          <mxGeometry x="445" y="410" width="80" height="40" as="geometry" />
        </mxCell>
        <mxCell id="MIX5FxBl54moTWi2iaJ1-52" value="" style="endArrow=none;html=1;rounded=0;entryX=0;entryY=0.833;entryDx=0;entryDy=0;entryPerimeter=0;" edge="1" parent="1" target="YDMUcPhCbgxgJ5gFrsg1-14">
          <mxGeometry width="50" height="50" relative="1" as="geometry">
            <mxPoint x="525" y="430" as="sourcePoint" />
            <mxPoint x="575" y="380" as="targetPoint" />
          </mxGeometry>
        </mxCell>
        <mxCell id="MIX5FxBl54moTWi2iaJ1-53" value="" style="endArrow=none;html=1;rounded=0;entryX=-0.009;entryY=0.503;entryDx=0;entryDy=0;entryPerimeter=0;exitX=1;exitY=0.5;exitDx=0;exitDy=0;" edge="1" parent="1" source="YDMUcPhCbgxgJ5gFrsg1-6" target="MIX5FxBl54moTWi2iaJ1-51">
          <mxGeometry width="50" height="50" relative="1" as="geometry">
            <mxPoint x="395" y="435" as="sourcePoint" />
            <mxPoint x="445" y="385" as="targetPoint" />
          </mxGeometry>
        </mxCell>
        <mxCell id="MIX5FxBl54moTWi2iaJ1-89" value="1" style="text;html=1;align=center;verticalAlign=middle;resizable=0;points=[];autosize=1;strokeColor=none;fillColor=none;" vertex="1" parent="1">
          <mxGeometry x="425" y="398" width="30" height="30" as="geometry" />
        </mxCell>
        <mxCell id="MIX5FxBl54moTWi2iaJ1-90" value="N" style="text;html=1;align=center;verticalAlign=middle;resizable=0;points=[];autosize=1;strokeColor=none;fillColor=none;" vertex="1" parent="1">
          <mxGeometry x="575" y="398" width="30" height="30" as="geometry" />
        </mxCell>
        <mxCell id="MIX5FxBl54moTWi2iaJ1-91" value="N" style="text;html=1;align=center;verticalAlign=middle;resizable=0;points=[];autosize=1;strokeColor=none;fillColor=none;" vertex="1" parent="1">
          <mxGeometry x="775" y="398" width="30" height="30" as="geometry" />
        </mxCell>
        <mxCell id="MIX5FxBl54moTWi2iaJ1-92" value="1" style="text;html=1;align=center;verticalAlign=middle;resizable=0;points=[];autosize=1;strokeColor=none;fillColor=none;" vertex="1" parent="1">
          <mxGeometry x="945" y="398" width="30" height="30" as="geometry" />
        </mxCell>
        <mxCell id="MIX5FxBl54moTWi2iaJ1-93" value="N" style="text;html=1;align=center;verticalAlign=middle;resizable=0;points=[];autosize=1;strokeColor=none;fillColor=none;" vertex="1" parent="1">
          <mxGeometry x="775" y="148" width="30" height="30" as="geometry" />
        </mxCell>
        <mxCell id="MIX5FxBl54moTWi2iaJ1-94" value="1" style="text;html=1;align=center;verticalAlign=middle;resizable=0;points=[];autosize=1;strokeColor=none;fillColor=none;" vertex="1" parent="1">
          <mxGeometry x="325" y="358" width="30" height="30" as="geometry" />
        </mxCell>
        <mxCell id="MIX5FxBl54moTWi2iaJ1-95" value="N" style="text;html=1;align=center;verticalAlign=middle;resizable=0;points=[];autosize=1;strokeColor=none;fillColor=none;" vertex="1" parent="1">
          <mxGeometry x="295" y="258" width="30" height="30" as="geometry" />
        </mxCell>
        <mxCell id="MIX5FxBl54moTWi2iaJ1-96" value="1" style="text;html=1;align=center;verticalAlign=middle;resizable=0;points=[];autosize=1;strokeColor=none;fillColor=none;" vertex="1" parent="1">
          <mxGeometry x="1065" y="368" width="30" height="30" as="geometry" />
        </mxCell>
        <mxCell id="MIX5FxBl54moTWi2iaJ1-97" value="Sessão" style="swimlane;fontStyle=0;childLayout=stackLayout;horizontal=1;startSize=26;fillColor=none;horizontalStack=0;resizeParent=1;resizeParentMax=0;resizeLast=0;collapsible=1;marginBottom=0;" vertex="1" parent="1">
          <mxGeometry x="550" y="600" width="160" height="188" as="geometry" />
        </mxCell>
        <mxCell id="MIX5FxBl54moTWi2iaJ1-98" value="PK    ID_Sala" style="text;strokeColor=none;fillColor=none;align=left;verticalAlign=top;spacingLeft=4;spacingRight=4;overflow=hidden;rotatable=0;points=[[0,0.5],[1,0.5]];portConstraint=eastwest;" vertex="1" parent="MIX5FxBl54moTWi2iaJ1-97">
          <mxGeometry y="26" width="160" height="26" as="geometry" />
        </mxCell>
        <mxCell id="MIX5FxBl54moTWi2iaJ1-99" value="        Numero&#xa;        Tipo&#xa;        Numero_Lugares" style="text;strokeColor=none;fillColor=none;align=left;verticalAlign=top;spacingLeft=4;spacingRight=4;overflow=hidden;rotatable=0;points=[[0,0.5],[1,0.5]];portConstraint=eastwest;" vertex="1" parent="MIX5FxBl54moTWi2iaJ1-97">
          <mxGeometry y="52" width="160" height="68" as="geometry" />
        </mxCell>
        <mxCell id="MIX5FxBl54moTWi2iaJ1-112" style="text;strokeColor=none;fillColor=none;align=left;verticalAlign=top;spacingLeft=4;spacingRight=4;overflow=hidden;rotatable=0;points=[[0,0.5],[1,0.5]];portConstraint=eastwest;" vertex="1" parent="MIX5FxBl54moTWi2iaJ1-97">
          <mxGeometry y="120" width="160" height="68" as="geometry" />
        </mxCell>
        <mxCell id="MIX5FxBl54moTWi2iaJ1-100" value="Bilhetes" style="swimlane;fontStyle=0;childLayout=stackLayout;horizontal=1;startSize=26;fillColor=none;horizontalStack=0;resizeParent=1;resizeParentMax=0;resizeLast=0;collapsible=1;marginBottom=0;" vertex="1" parent="1">
          <mxGeometry x="850" y="600" width="160" height="120" as="geometry" />
        </mxCell>
        <mxCell id="MIX5FxBl54moTWi2iaJ1-101" value="PK    ID_Sala" style="text;strokeColor=none;fillColor=none;align=left;verticalAlign=top;spacingLeft=4;spacingRight=4;overflow=hidden;rotatable=0;points=[[0,0.5],[1,0.5]];portConstraint=eastwest;" vertex="1" parent="MIX5FxBl54moTWi2iaJ1-100">
          <mxGeometry y="26" width="160" height="26" as="geometry" />
        </mxCell>
        <mxCell id="MIX5FxBl54moTWi2iaJ1-102" value="        Numero&#xa;        Tipo&#xa;        Numero_Lugares" style="text;strokeColor=none;fillColor=none;align=left;verticalAlign=top;spacingLeft=4;spacingRight=4;overflow=hidden;rotatable=0;points=[[0,0.5],[1,0.5]];portConstraint=eastwest;" vertex="1" parent="MIX5FxBl54moTWi2iaJ1-100">
          <mxGeometry y="52" width="160" height="68" as="geometry" />
        </mxCell>
        <mxCell id="MIX5FxBl54moTWi2iaJ1-103" value="Filme" style="swimlane;fontStyle=1;childLayout=stackLayout;horizontal=1;startSize=26;fillColor=none;horizontalStack=0;resizeParent=1;resizeParentMax=0;resizeLast=0;collapsible=1;marginBottom=0;" vertex="1" parent="1">
          <mxGeometry x="270" y="840" width="160" height="120" as="geometry" />
        </mxCell>
        <mxCell id="MIX5FxBl54moTWi2iaJ1-104" value="PK    ID_Sala" style="text;strokeColor=none;fillColor=none;align=left;verticalAlign=top;spacingLeft=4;spacingRight=4;overflow=hidden;rotatable=0;points=[[0,0.5],[1,0.5]];portConstraint=eastwest;" vertex="1" parent="MIX5FxBl54moTWi2iaJ1-103">
          <mxGeometry y="26" width="160" height="26" as="geometry" />
        </mxCell>
        <mxCell id="MIX5FxBl54moTWi2iaJ1-105" value="        Numero&#xa;        Tipo&#xa;        Numero_Lugares" style="text;strokeColor=none;fillColor=none;align=left;verticalAlign=top;spacingLeft=4;spacingRight=4;overflow=hidden;rotatable=0;points=[[0,0.5],[1,0.5]];portConstraint=eastwest;" vertex="1" parent="MIX5FxBl54moTWi2iaJ1-103">
          <mxGeometry y="52" width="160" height="68" as="geometry" />
        </mxCell>
        <mxCell id="MIX5FxBl54moTWi2iaJ1-106" value="Avaliações" style="swimlane;fontStyle=0;childLayout=stackLayout;horizontal=1;startSize=26;fillColor=none;horizontalStack=0;resizeParent=1;resizeParentMax=0;resizeLast=0;collapsible=1;marginBottom=0;" vertex="1" parent="1">
          <mxGeometry x="550" y="840" width="160" height="120" as="geometry" />
        </mxCell>
        <mxCell id="MIX5FxBl54moTWi2iaJ1-107" value="PK    ID_Sala" style="text;strokeColor=none;fillColor=none;align=left;verticalAlign=top;spacingLeft=4;spacingRight=4;overflow=hidden;rotatable=0;points=[[0,0.5],[1,0.5]];portConstraint=eastwest;" vertex="1" parent="MIX5FxBl54moTWi2iaJ1-106">
          <mxGeometry y="26" width="160" height="26" as="geometry" />
        </mxCell>
        <mxCell id="MIX5FxBl54moTWi2iaJ1-108" value="        Numero&#xa;        Tipo&#xa;        Numero_Lugares" style="text;strokeColor=none;fillColor=none;align=left;verticalAlign=top;spacingLeft=4;spacingRight=4;overflow=hidden;rotatable=0;points=[[0,0.5],[1,0.5]];portConstraint=eastwest;" vertex="1" parent="MIX5FxBl54moTWi2iaJ1-106">
          <mxGeometry y="52" width="160" height="68" as="geometry" />
        </mxCell>
        <mxCell id="MIX5FxBl54moTWi2iaJ1-109" value="Cliente" style="swimlane;fontStyle=0;childLayout=stackLayout;horizontal=1;startSize=26;fillColor=none;horizontalStack=0;resizeParent=1;resizeParentMax=0;resizeLast=0;collapsible=1;marginBottom=0;" vertex="1" parent="1">
          <mxGeometry x="840" y="840" width="160" height="120" as="geometry" />
        </mxCell>
        <mxCell id="MIX5FxBl54moTWi2iaJ1-110" value="PK    ID_Sala" style="text;strokeColor=none;fillColor=none;align=left;verticalAlign=top;spacingLeft=4;spacingRight=4;overflow=hidden;rotatable=0;points=[[0,0.5],[1,0.5]];portConstraint=eastwest;" vertex="1" parent="MIX5FxBl54moTWi2iaJ1-109">
          <mxGeometry y="26" width="160" height="26" as="geometry" />
        </mxCell>
        <mxCell id="MIX5FxBl54moTWi2iaJ1-111" value="        Numero&#xa;        Tipo&#xa;        Numero_Lugares" style="text;strokeColor=none;fillColor=none;align=left;verticalAlign=top;spacingLeft=4;spacingRight=4;overflow=hidden;rotatable=0;points=[[0,0.5],[1,0.5]];portConstraint=eastwest;" vertex="1" parent="MIX5FxBl54moTWi2iaJ1-109">
          <mxGeometry y="52" width="160" height="68" as="geometry" />
        </mxCell>
      </root>
    </mxGraphModel>
  </diagram>
</mxfile>
